<?xml version="1.0" ?><svg id="Capa_1" style="enable-background:new 0 0 511.998 511.998;" version="1.1" viewBox="0 0 511.998 511.998" xml:space="preserve" xmlns="http://www.w3.org/2000/svg" xmlns:xlink="http://www.w3.org/1999/xlink"><g><g><g><path d="M511.992,155.897c-0.002-0.219-0.016-0.437-0.033-0.654c-0.008-0.115-0.012-0.232-0.025-0.346     c-0.021-0.199-0.057-0.398-0.09-0.596c-0.023-0.133-0.041-0.267-0.068-0.398c-0.035-0.16-0.082-0.319-0.123-0.479     c-0.045-0.165-0.086-0.331-0.137-0.493c-0.041-0.123-0.09-0.244-0.135-0.365c-0.07-0.193-0.141-0.387-0.223-0.574     c-0.045-0.102-0.098-0.203-0.147-0.305c-0.096-0.199-0.193-0.398-0.301-0.59c-0.016-0.029-0.027-0.059-0.045-0.088     l-44.668-77.687V35.997c0-5.523-4.478-10-10-10h-400c-5.523,0-10,4.477-10,10v37.33L1.33,151.011     c-0.016,0.029-0.027,0.059-0.045,0.088c-0.107,0.191-0.205,0.391-0.301,0.59c-0.049,0.102-0.102,0.202-0.146,0.305     c-0.082,0.188-0.152,0.381-0.223,0.574c-0.045,0.121-0.094,0.242-0.133,0.365c-0.053,0.162-0.094,0.328-0.137,0.493     c-0.043,0.159-0.09,0.318-0.123,0.479c-0.027,0.132-0.047,0.266-0.068,0.398c-0.035,0.198-0.07,0.396-0.092,0.595     c-0.012,0.113-0.016,0.23-0.025,0.347c-0.016,0.218-0.031,0.436-0.033,0.653c0,0.033-0.004,0.065-0.004,0.099v40.001     c0,5.522,4.477,10,10,10h35.998v260h-7.033c-5.522,0-10,4.478-10,10c0,5.523,4.478,10,10,10h16.994     c0.014,0,0.025,0.002,0.039,0.002h396.801H456h17.031c5.523,0,10-4.478,10-10c0-5.522-4.477-10-10-10H466V205.997h35.998     c5.522,0,10-4.478,10-10v-40.001C511.998,155.963,511.992,155.931,511.992,155.897z M484.713,145.996H266V85.997h184.215     L484.713,145.996z M65.998,45.997h380v20h-380V45.997z M61.783,85.997H246v59.999H27.285L61.783,85.997z M20,185.997v-20.001h226     v20.001H20z M346,465.999H65.998V205.997h22.857v10.001c0,5.522,4.477,10,10,10c5.521,0,10-4.478,10-10v-10.001h22.856v10.001     c0,5.522,4.479,10,10,10c5.523,0,10-4.478,10-10v-10.001h22.857v10.001c0,5.522,4.477,10,10,10c5.521,0,10-4.478,10-10v-10.001     h22.859v10.001c0,5.522,4.477,10,10,10c5.521,0,10-4.478,10-10v-10.001h18.533c0.014,0,0.025,0.002,0.039,0.002     c0.012,0,0.025-0.002,0.039-0.002h4.244v10.001c0,5.522,4.478,10,10,10c5.523,0,10-4.478,10-10v-10.001h22.857v10.001     c0,5.522,4.479,10,10,10c5.523,0,10-4.478,10-10v-10.001H346V465.999z M446,465.999h-80v-80h10c5.523,0,10-4.478,10-10     c0-5.522-4.477-10-10-10h-10v-80h80V465.999z M446,265.999h-80v-60.002h80V265.999z M491.998,185.997H266v-20.001h225.998     V185.997z"/><path d="M10.234,465.997H10c-5.523,0-10,4.478-10,10c0,5.523,4.477,10,10,10h0.234c5.522,0,10-4.477,10-10     C20.234,470.475,15.756,465.997,10.234,465.997z"/><path d="M266,265.999h-20.002h-100c-5.521,0-10,4.478-10,10v39.999c0,27.57,22.43,50,50,50H206c24.145,0,44.346-17.205,48.992-40     H266c16.541,0,29.998-13.457,29.998-29.999S282.541,265.999,266,265.999z M235.998,315.998c0,16.542-13.457,30-29.998,30h-20.002     c-16.541,0-30-13.458-30-30v-29.999h80V315.998z M266,305.998h-10.002v-19.999H266c5.514,0,9.998,4.486,9.998,10     C275.998,301.513,271.514,305.998,266,305.998z"/><path d="M501.998,465.999h-0.236c-5.523,0-10,4.478-10,10c0,5.522,4.477,10,10,10h0.236c5.522,0,10-4.478,10-10     C511.998,470.477,507.52,465.999,501.998,465.999z"/><path d="M266,385.999h-0.236c-5.523,0-10,4.478-10,10c0,5.522,4.477,10,10,10H266c5.521,0,10-4.478,10-10     C276,390.477,271.521,385.999,266,385.999z"/><path d="M237.033,385.996h-71.035c-5.523,0-10,4.478-10,10c0,5.522,4.477,10,10,10h71.035c5.523,0,10-4.478,10-10     C247.033,390.474,242.557,385.996,237.033,385.996z"/></g></g></g><g/><g/><g/><g/><g/><g/><g/><g/><g/><g/><g/><g/><g/><g/><g/></svg>